<svg xmlns="http://www.w3.org/2000/svg" viewBox="0 0 42.25 40.18"><defs><style>.cls-1{fill:#e8e8e8;}</style></defs><title>Zvezda</title><g id="Слой_2" data-name="Слой 2"><g id="Слой_1-2" data-name="Слой 1"><path class="cls-1" d="M21.12,6.78,25,14.55l.7,1.41,1.56.23,8.58,1.25-6.21,6.05-1.13,1.1.27,1.55,1.47,8.55-7.67-4-1.4-.73-1.4.73-7.67,4,1.47-8.55.27-1.55-1.13-1.1L6.45,17.44,15,16.2,16.59,16l.7-1.41,3.84-7.78m0-6.78L14.6,13.23,0,15.35l10.56,10.3L8.07,40.18l13.06-6.86,13.06,6.86L31.69,25.64l10.56-10.3-14.6-2.12L21.12,0Z"/></g></g></svg>